<svg width="181" height="34" viewBox="0 0 181 34" fill="none" xmlns="http://www.w3.org/2000/svg">
<path d="M4.03616 4.23236L10.5559 2.04956C10.5559 3.63558 11.1832 5.15669 12.2998 6.27822C13.4164 7.39961 14.9309 8.0297 16.51 8.0297C18.0892 8.0297 19.6036 7.39961 20.7203 6.27822C21.8369 5.15669 22.4641 3.63558 22.4641 2.04956L28.9839 4.23236C29.6577 4.45781 30.229 4.91764 30.5948 5.52907C30.9606 6.14036 31.0966 6.86295 30.9786 7.56624L30.1153 12.7541C30.0585 13.1052 29.8791 13.4246 29.6089 13.6548C29.3388 13.8851 28.9958 14.0109 28.6416 14.0098H25.4413V28.9602C25.4413 30.6048 24.1016 31.9504 22.4641 31.9504H10.5559C9.76637 31.9504 9.00905 31.6353 8.45075 31.0745C7.89245 30.5139 7.57877 29.7533 7.57877 28.9602V14.0098H4.37848C4.02424 14.0109 3.68128 13.8851 3.41114 13.6548C3.14099 13.4246 2.96154 13.1052 2.90479 12.7541L2.04149 7.56624C1.92332 6.86295 2.0595 6.14036 2.42527 5.52907C2.79103 4.91764 3.36242 4.45781 4.03616 4.23236Z" stroke="url(#paint0_radial_86_4736)" stroke-width="2.5" stroke-linecap="round" stroke-linejoin="round"/>
<path d="M11.7665 4.19005L18.289 2C18.289 3.59128 18.9165 5.11744 20.0336 6.24269C21.1507 7.3678 22.6658 7.99997 24.2456 7.99997C25.8255 7.99997 27.3405 7.3678 28.4577 6.24269C29.5748 5.11744 30.2023 3.59128 30.2023 2L36.7248 4.19005C37.3988 4.41624 37.9704 4.8776 38.3364 5.49105C38.7023 6.10437 38.8384 6.82936 38.7203 7.53498L37.8566 12.74C37.7999 13.0923 37.6203 13.4128 37.3501 13.6438C37.0798 13.8748 36.7367 14.001 36.3823 13.9999H33.1807V28.9999C33.1807 30.65 31.8404 32 30.2023 32H18.289C17.4991 32 16.7415 31.6838 16.183 31.1212C15.6244 30.5587 15.3106 29.7957 15.3106 28.9999V13.9999H12.109C11.7546 14.001 11.4115 13.8748 11.1412 13.6438C10.871 13.4128 10.6914 13.0923 10.6347 12.74L9.771 7.53498C9.65278 6.82936 9.78902 6.10437 10.1549 5.49105C10.5209 4.8776 11.0925 4.41624 11.7665 4.19005Z" stroke="url(#paint1_radial_86_4736)" stroke-width="2.5" stroke-linecap="round" stroke-linejoin="round"/>
<path d="M53.0361 27.4452V6.75533C53.0361 6.31304 53.2509 6.09189 53.6804 6.09189H67.7C68.1295 6.09189 68.3442 6.31304 68.3442 6.75533V10.5508C68.3442 10.9828 68.1295 11.1988 67.7 11.1988H58.7268V15.7657H65.3071C65.7366 15.7657 65.9514 15.9868 65.9514 16.4291V20.024C65.9514 20.456 65.7366 20.672 65.3071 20.672H58.7268V27.4452C58.7268 27.8772 58.5121 28.0933 58.0826 28.0933H53.6804C53.2509 28.0933 53.0361 27.8772 53.0361 27.4452Z" fill="#1C171F"/>
<path d="M80.2394 19.7772L77.8619 13.0502L75.5458 19.7772H80.2394ZM67.2015 27.4452L75.193 6.75533C75.3668 6.31304 75.6685 6.09189 76.098 6.09189H79.7026C80.1218 6.09189 80.4184 6.31304 80.5922 6.75533L88.6297 27.4452C88.8036 27.8772 88.6655 28.0933 88.2156 28.0933H83.8287C83.389 28.0933 83.0976 27.8772 82.9544 27.4452L81.9267 24.5446H73.8892L72.8922 27.4452C72.749 27.8772 72.4525 28.0933 72.0025 28.0933H67.6156C67.1759 28.0933 67.0379 27.8772 67.2015 27.4452Z" fill="#1C171F"/>
<path d="M90.2365 24.6218C90.1444 24.5189 90.0575 24.4161 89.9757 24.3132C89.9041 24.2104 89.853 24.1075 89.8223 24.0046C89.7916 23.8915 89.7916 23.7783 89.8223 23.6652C89.8632 23.5521 89.945 23.4338 90.0677 23.3103L92.614 20.8726C92.7571 20.7286 92.9054 20.6566 93.0588 20.6566C93.1713 20.6566 93.2838 20.6875 93.3963 20.7492C93.519 20.8109 93.6366 20.8932 93.7491 20.996C94.0251 21.2223 94.3319 21.4743 94.6694 21.752C95.0171 22.0195 95.3852 22.2715 95.7738 22.5081C96.1623 22.7343 96.5714 22.9246 97.0009 23.0789C97.4304 23.2332 97.8701 23.3103 98.32 23.3103C98.8211 23.3103 99.2301 23.2538 99.5471 23.1406C99.8641 23.0275 100.115 22.8783 100.299 22.6932C100.483 22.5081 100.605 22.292 100.667 22.0452C100.738 21.788 100.774 21.5206 100.774 21.2429C100.774 20.9343 100.667 20.6617 100.452 20.4252C100.237 20.1783 99.9715 19.9675 99.6545 19.7926C99.3375 19.6075 99.0051 19.448 98.6575 19.3143C98.3098 19.1806 98.003 19.0674 97.7371 18.9749C96.5612 18.5634 95.5181 18.116 94.608 17.6326C93.7081 17.1491 92.9565 16.6143 92.3532 16.028C91.7499 15.4417 91.2897 14.7937 90.9727 14.084C90.666 13.3742 90.5126 12.5874 90.5126 11.7234C90.5126 10.8079 90.7069 9.97479 91.0954 9.22392C91.484 8.47306 92.026 7.83534 92.7214 7.31076C93.4269 6.7759 94.2655 6.36446 95.2369 6.07646C96.2186 5.77817 97.3025 5.62903 98.4887 5.62903C99.1534 5.62903 99.8232 5.70103 100.498 5.84503C101.183 5.97875 101.838 6.17418 102.461 6.43132C103.095 6.68847 103.683 6.99704 104.225 7.35705C104.778 7.70676 105.243 8.09248 105.621 8.5142C105.826 8.75077 105.928 8.97706 105.928 9.19306C105.928 9.40907 105.81 9.63535 105.575 9.87193L103.32 12.2942C103.167 12.4485 103.009 12.5257 102.845 12.5257C102.712 12.5257 102.584 12.4897 102.461 12.4177C102.339 12.3354 102.211 12.2377 102.078 12.1245C101.546 11.6411 100.999 11.2554 100.437 10.9674C99.8743 10.6794 99.2301 10.5354 98.5041 10.5354C98.228 10.5354 97.9519 10.5611 97.6758 10.6125C97.3997 10.6536 97.1491 10.7359 96.9242 10.8594C96.7094 10.9725 96.5305 11.1268 96.3873 11.3222C96.2544 11.5074 96.1879 11.7388 96.1879 12.0165C96.1879 12.2942 96.2646 12.536 96.418 12.7417C96.5714 12.9371 96.7964 13.1222 97.0929 13.2971C97.3894 13.4617 97.7474 13.6263 98.1666 13.7908C98.5961 13.9451 99.0767 14.1097 99.6085 14.2845C100.651 14.6343 101.602 14.9994 102.461 15.38C103.331 15.7606 104.072 16.2131 104.686 16.7377C105.309 17.252 105.79 17.8691 106.127 18.5892C106.475 19.3092 106.649 20.1835 106.649 21.212C106.649 22.292 106.434 23.2743 106.005 24.1589C105.585 25.0435 104.997 25.7995 104.241 26.4269C103.494 27.0441 102.61 27.5224 101.587 27.8618C100.565 28.2013 99.45 28.371 98.2433 28.371C97.4866 28.371 96.735 28.2733 95.9885 28.0778C95.242 27.8721 94.5211 27.5995 93.8257 27.2601C93.1406 26.9207 92.4913 26.5247 91.8777 26.0721C91.2744 25.6195 90.7273 25.1361 90.2365 24.6218Z" fill="#1C171F"/>
<path d="M123.276 27.4452V19.0212H115.883V27.4452C115.883 27.8772 115.648 28.0933 115.177 28.0933H110.852C110.422 28.0933 110.208 27.8772 110.208 27.4452V6.75533C110.208 6.58047 110.259 6.42618 110.361 6.29246C110.473 6.15875 110.637 6.09189 110.852 6.09189H115.269C115.392 6.09189 115.525 6.13303 115.668 6.21532C115.811 6.28732 115.883 6.45704 115.883 6.72447V13.7908H123.276V6.75533C123.276 6.58047 123.327 6.42618 123.43 6.29246C123.542 6.15875 123.706 6.09189 123.92 6.09189H128.338C128.461 6.09189 128.594 6.13303 128.737 6.21532C128.88 6.28732 128.952 6.45704 128.952 6.72447V27.4452C128.952 27.8772 128.716 28.0933 128.246 28.0933H123.92C123.491 28.0933 123.276 27.8772 123.276 27.4452Z" fill="#1C171F"/>
<path d="M147.013 27.4452L139.267 14.624V27.4452C139.267 27.8772 139.027 28.0933 138.546 28.0933H134.435C134.006 28.0933 133.791 27.8772 133.791 27.4452V6.75533C133.791 6.58047 133.842 6.42618 133.944 6.29246C134.057 6.15875 134.22 6.09189 134.435 6.09189H139.205C139.42 6.09189 139.615 6.15361 139.788 6.27704C139.962 6.39018 140.116 6.54961 140.249 6.75533L147.626 18.7589V6.75533C147.626 6.58047 147.678 6.42618 147.78 6.29246C147.892 6.15875 148.061 6.09189 148.286 6.09189H152.381C152.535 6.09189 152.693 6.15361 152.857 6.27704C153.021 6.40046 153.102 6.55989 153.102 6.75533V27.4452C153.102 27.8772 152.862 28.0933 152.381 28.0933H148.071C147.632 28.0933 147.279 27.8772 147.013 27.4452Z" fill="#1C171F"/>
<path d="M170.32 20.7183L165.565 8.93078L160.733 20.7183H170.32ZM156.055 27.4761L164.722 6.47761C164.762 6.37475 164.819 6.28218 164.89 6.19989C164.972 6.1176 165.074 6.07646 165.197 6.07646H165.933C166.005 6.07646 166.087 6.10732 166.179 6.16903C166.271 6.22046 166.353 6.32332 166.424 6.47761L175.121 27.4761C175.203 27.6612 175.193 27.8104 175.091 27.9235C174.998 28.0367 174.881 28.0933 174.738 28.0933H173.603C173.521 28.0933 173.439 28.0727 173.357 28.0315C173.286 27.9801 173.219 27.8772 173.158 27.723L171.102 22.6315H159.951L157.865 27.7075C157.804 27.8618 157.732 27.9647 157.65 28.0161C157.579 28.0675 157.502 28.0933 157.42 28.0933H156.454C156.29 28.0933 156.162 28.0418 156.07 27.939C155.978 27.8258 155.973 27.6715 156.055 27.4761Z" fill="#1C171F"/>
<path d="M178.438 27.5532V6.61647C178.438 6.46218 178.479 6.33361 178.561 6.23075C178.643 6.12789 178.755 6.07646 178.898 6.07646H179.849C180.013 6.07646 180.125 6.12789 180.187 6.23075C180.258 6.33361 180.294 6.46218 180.294 6.61647V27.5532C180.294 27.7178 180.258 27.8515 180.187 27.9544C180.125 28.047 180.013 28.0933 179.849 28.0933H178.898C178.735 28.0933 178.617 28.047 178.546 27.9544C178.474 27.8515 178.438 27.7178 178.438 27.5532Z" fill="#1C171F"/>
<defs>
<radialGradient id="paint0_radial_86_4736" cx="0" cy="0" r="1" gradientUnits="userSpaceOnUse" gradientTransform="translate(16.51 17) rotate(90) scale(14.9504 14.51)">
<stop offset="0.533654" stop-color="#7D8FE2"/>
<stop offset="1"/>
</radialGradient>
<radialGradient id="paint1_radial_86_4736" cx="0" cy="0" r="1" gradientUnits="userSpaceOnUse" gradientTransform="translate(24.2456 17) rotate(90) scale(15 14.5161)">
<stop offset="0.533654" stop-color="#7D8FE2"/>
<stop offset="1"/>
</radialGradient>
</defs>
</svg>
