<svg width="193" height="206" viewBox="0 0 193 206" fill="none" xmlns="http://www.w3.org/2000/svg">
<path d="M28.9415 13.2272L55.89 4.20496C55.89 10.7605 58.4825 17.0478 63.0978 21.6834C67.7131 26.3185 73.973 28.9228 80.5002 28.9228C87.0274 28.9228 93.2868 26.3185 97.9026 21.6834C102.518 17.0478 105.11 10.7605 105.11 4.20496L132.059 13.2272C134.844 14.1591 137.205 16.0597 138.717 18.5869C140.229 21.1136 140.791 24.1003 140.304 27.0072L136.735 48.4503C136.501 49.9016 135.759 51.2217 134.642 52.1734C133.526 53.125 132.108 53.645 130.644 53.6407H117.416V115.436C117.416 122.233 111.879 127.795 105.11 127.795H55.89C52.6264 127.795 49.4961 126.493 47.1885 124.175C44.8808 121.857 43.5843 118.714 43.5843 115.436V53.6407H30.3564C28.8923 53.645 27.4747 53.125 26.3581 52.1734C25.2415 51.2217 24.4998 49.9016 24.2652 48.4503L20.6969 27.0072C20.2085 24.1003 20.7713 21.1136 22.2832 18.5869C23.795 16.0597 26.1567 14.1591 28.9415 13.2272Z" stroke="url(#paint0_radial_86_4720)" stroke-width="8" stroke-linecap="round" stroke-linejoin="round"/>
<path d="M60.8943 13.0522L87.8541 4C87.8541 10.5773 90.4477 16.8854 95.065 21.5364C99.6822 26.1869 105.945 28.7999 112.475 28.7999C119.005 28.7999 125.267 26.1869 129.884 21.5364C134.502 16.8854 137.095 10.5773 137.095 4L164.055 13.0522C166.841 13.9871 169.204 15.8941 170.716 18.4297C172.229 20.9647 172.791 23.9613 172.303 26.8779L168.733 48.3921C168.499 49.8482 167.757 51.1727 166.64 52.1275C165.523 53.0824 164.104 53.6041 162.64 53.5998H149.406V115.6C149.406 122.42 143.866 128 137.095 128H87.8541C84.5891 128 81.4576 126.693 79.149 124.368C76.8403 122.043 75.5432 118.889 75.5432 115.6V53.5998H62.3098C60.845 53.6041 59.4268 53.0824 58.3098 52.1275C57.1927 51.1727 56.4507 49.8482 56.216 48.3921L52.6462 26.8779C52.1576 23.9613 52.7206 20.9647 54.2331 18.4297C55.7456 15.8941 58.1083 13.9871 60.8943 13.0522Z" stroke="url(#paint1_radial_86_4720)" stroke-width="8" stroke-linecap="round" stroke-linejoin="round"/>
<path d="M3.60573 188.059V158.027C3.60573 157.385 3.91927 157.064 4.54635 157.064H25.0161C25.6432 157.064 25.9568 157.385 25.9568 158.027V163.536C25.9568 164.163 25.6432 164.477 25.0161 164.477H11.9146V171.106H21.5224C22.1495 171.106 22.463 171.427 22.463 172.069V177.287C22.463 177.914 22.1495 178.228 21.5224 178.228H11.9146V188.059C11.9146 188.686 11.601 189 10.974 189H4.54635C3.91927 189 3.60573 188.686 3.60573 188.059ZM43.3247 176.929L39.8534 167.164L36.4716 176.929H43.3247ZM24.2883 188.059L35.9565 158.027C36.2103 157.385 36.6508 157.064 37.2779 157.064H42.5409C43.153 157.064 43.586 157.385 43.8398 158.027L55.5753 188.059C55.8291 188.686 55.6275 189 54.9706 189H48.5654C47.9234 189 47.4978 188.686 47.2888 188.059L45.7883 183.849H34.0529L32.5971 188.059C32.3881 188.686 31.9551 189 31.2982 189H24.893C24.251 189 24.0494 188.686 24.2883 188.059ZM57.9212 183.961C57.7868 183.812 57.6599 183.662 57.5405 183.513C57.436 183.364 57.3613 183.214 57.3165 183.065C57.2717 182.901 57.2717 182.737 57.3165 182.572C57.3763 182.408 57.4957 182.236 57.6749 182.057L61.3926 178.519C61.6016 178.31 61.8181 178.205 62.0421 178.205C62.2063 178.205 62.3705 178.25 62.5348 178.34C62.7139 178.429 62.8856 178.549 63.0499 178.698C63.453 179.026 63.9009 179.392 64.3936 179.795C64.9013 180.184 65.4388 180.549 66.0061 180.893C66.5735 181.221 67.1707 181.497 67.7978 181.721C68.4249 181.945 69.0669 182.057 69.7238 182.057C70.4554 182.057 71.0526 181.975 71.5155 181.811C71.9783 181.647 72.3441 181.43 72.6129 181.161C72.8816 180.893 73.0608 180.579 73.1504 180.221C73.2549 179.848 73.3072 179.459 73.3072 179.056C73.3072 178.608 73.1504 178.213 72.8368 177.869C72.5233 177.511 72.1351 177.205 71.6723 176.951C71.2094 176.682 70.7242 176.451 70.2165 176.257C69.7089 176.063 69.261 175.898 68.8728 175.764C67.1558 175.167 65.6329 174.517 64.304 173.816C62.9901 173.114 61.8928 172.337 61.0118 171.486C60.1309 170.635 59.4591 169.695 58.9962 168.665C58.5483 167.634 58.3243 166.492 58.3243 165.238C58.3243 163.909 58.608 162.7 59.1754 161.61C59.7428 160.52 60.5341 159.594 61.5493 158.833C62.5796 158.056 63.8039 157.459 65.2223 157.041C66.6556 156.608 68.2382 156.392 69.9702 156.392C70.9407 156.392 71.9186 156.496 72.904 156.705C73.9044 156.899 74.8599 157.183 75.7707 157.556C76.6964 157.93 77.5549 158.377 78.3462 158.9C79.1525 159.408 79.8318 159.968 80.3842 160.58C80.6829 160.923 80.8322 161.252 80.8322 161.565C80.8322 161.879 80.6605 162.207 80.3171 162.551L77.0249 166.067C76.8009 166.291 76.5695 166.403 76.3306 166.403C76.1365 166.403 75.9499 166.35 75.7707 166.246C75.5915 166.126 75.4049 165.985 75.2108 165.82C74.4344 165.119 73.6356 164.559 72.8145 164.141C71.9933 163.723 71.0526 163.514 69.9926 163.514C69.5895 163.514 69.1863 163.551 68.7832 163.626C68.3801 163.685 68.0143 163.805 67.6858 163.984C67.3723 164.148 67.111 164.372 66.902 164.656C66.7079 164.924 66.6108 165.26 66.6108 165.664C66.6108 166.067 66.7228 166.418 66.9467 166.716C67.1707 167 67.4992 167.269 67.9322 167.522C68.3651 167.761 68.8877 168 69.4999 168.239C70.127 168.463 70.8287 168.702 71.6051 168.956C73.128 169.463 74.5165 169.993 75.7707 170.546C77.0398 171.098 78.1223 171.755 79.0181 172.517C79.9289 173.263 80.6306 174.159 81.1233 175.204C81.6309 176.249 81.8848 177.518 81.8848 179.011C81.8848 180.579 81.5712 182.005 80.9441 183.289C80.332 184.573 79.4735 185.67 78.3686 186.581C77.2787 187.477 75.9872 188.171 74.4941 188.664C73.0011 189.157 71.3737 189.403 69.6118 189.403C68.507 189.403 67.4096 189.261 66.3197 188.978C65.2297 188.679 64.1771 188.283 63.1618 187.791C62.1615 187.298 61.2134 186.723 60.3176 186.066C59.4367 185.409 58.6379 184.707 57.9212 183.961ZM106.162 188.059V175.831H95.3671V188.059C95.3671 188.686 95.0237 189 94.3368 189H88.0212C87.3941 189 87.0806 188.686 87.0806 188.059V158.027C87.0806 157.773 87.1553 157.549 87.3046 157.355C87.4688 157.161 87.7077 157.064 88.0212 157.064H94.4712C94.6504 157.064 94.8445 157.123 95.0535 157.243C95.2625 157.347 95.3671 157.594 95.3671 157.982V168.239H106.162V158.027C106.162 157.773 106.237 157.549 106.386 157.355C106.55 157.161 106.789 157.064 107.102 157.064H113.552C113.732 157.064 113.926 157.123 114.135 157.243C114.344 157.347 114.448 157.594 114.448 157.982V188.059C114.448 188.686 114.105 189 113.418 189H107.102C106.475 189 106.162 188.686 106.162 188.059ZM140.819 188.059L129.51 169.448V188.059C129.51 188.686 129.159 189 128.457 189H122.455C121.828 189 121.514 188.686 121.514 188.059V158.027C121.514 157.773 121.589 157.549 121.738 157.355C121.902 157.161 122.141 157.064 122.455 157.064H129.42C129.733 157.064 130.017 157.153 130.271 157.332C130.525 157.497 130.749 157.728 130.943 158.027L141.715 175.451V158.027C141.715 157.773 141.79 157.549 141.939 157.355C142.103 157.161 142.35 157.064 142.678 157.064H148.658C148.882 157.064 149.113 157.153 149.352 157.332C149.591 157.511 149.711 157.743 149.711 158.027V188.059C149.711 188.686 149.36 189 148.658 189H142.365C141.723 189 141.208 188.686 140.819 188.059ZM174.85 178.295L167.907 161.184L160.852 178.295H174.85ZM154.022 188.104L166.675 157.623C166.735 157.474 166.817 157.34 166.922 157.22C167.041 157.101 167.19 157.041 167.37 157.041H168.445C168.549 157.041 168.669 157.086 168.803 157.176C168.937 157.25 169.057 157.399 169.161 157.623L181.86 188.104C181.979 188.373 181.964 188.589 181.815 188.754C181.681 188.918 181.509 189 181.3 189H179.643C179.523 189 179.404 188.97 179.284 188.91C179.18 188.836 179.083 188.686 178.993 188.462L175.992 181.072H159.71L156.664 188.44C156.575 188.664 156.47 188.813 156.351 188.888C156.246 188.963 156.134 189 156.015 189H154.604C154.365 189 154.179 188.925 154.044 188.776C153.91 188.612 153.902 188.388 154.022 188.104ZM186.703 188.216V157.825C186.703 157.601 186.763 157.414 186.882 157.265C187.001 157.116 187.166 157.041 187.375 157.041H188.763C189.002 157.041 189.166 157.116 189.256 157.265C189.361 157.414 189.413 157.601 189.413 157.825V188.216C189.413 188.455 189.361 188.649 189.256 188.798C189.166 188.933 189.002 189 188.763 189H187.375C187.136 189 186.964 188.933 186.86 188.798C186.755 188.649 186.703 188.455 186.703 188.216Z" fill="#1C171F"/>
<defs>
<radialGradient id="paint0_radial_86_4720" cx="0" cy="0" r="1" gradientUnits="userSpaceOnUse" gradientTransform="translate(80.5001 66) rotate(90) scale(61.795 59.9747)">
<stop offset="0.317308" stop-color="#7C93FF"/>
<stop offset="1" stop-color="#1C171F"/>
</radialGradient>
<radialGradient id="paint1_radial_86_4720" cx="0" cy="0" r="1" gradientUnits="userSpaceOnUse" gradientTransform="translate(112.475 66) rotate(90) scale(62 60)">
<stop offset="0.317308" stop-color="#7C93FF"/>
<stop offset="1" stop-color="#1C171F"/>
</radialGradient>
</defs>
</svg>
