<svg width="85" height="70" viewBox="0 0 85 70" fill="none" xmlns="http://www.w3.org/2000/svg">
<path d="M7.34372 7.76238L21.2523 3.10583C21.2523 6.48928 22.5904 9.73424 24.9724 12.1268C27.3544 14.519 30.5853 15.8632 33.9541 15.8632C37.3229 15.8632 40.5535 14.519 42.9358 12.1268C45.3178 9.73424 46.6559 6.48928 46.6559 3.10583L60.5644 7.76238C62.0017 8.24332 63.2206 9.22428 64.0009 10.5286C64.7812 11.8327 65.0714 13.3742 64.8196 14.8745L62.978 25.9416C62.8569 26.6907 62.4741 27.372 61.8978 27.8632C61.3215 28.3544 60.5899 28.6227 59.8342 28.6205H53.007V60.514C53.007 64.0224 50.149 66.8928 46.6559 66.8928H21.2523C19.5679 66.8928 17.9523 66.2206 16.7613 65.0244C15.5703 63.8284 14.9011 62.2059 14.9011 60.514V28.6205H8.07398C7.31829 28.6227 6.58666 28.3544 6.01036 27.8632C5.43406 27.372 5.05124 26.6907 4.93018 25.9416L3.08851 14.8745C2.83643 13.3742 3.12693 11.8327 3.90721 10.5286C4.6875 9.22428 5.90643 8.24332 7.34372 7.76238Z" stroke="url(#paint0_radial_86_4748)" stroke-width="5.33322" stroke-linecap="round" stroke-linejoin="round"/>
<path d="M23.8353 7.672L37.7497 3C37.7497 6.39466 39.0884 9.65039 41.4714 12.0509C43.8544 14.4511 47.0867 15.7997 50.4569 15.7997C53.8271 15.7997 57.059 14.4511 59.4424 12.0509C61.8254 9.65039 63.164 6.39466 63.164 3L77.0785 7.672C78.5164 8.15453 79.7358 9.13874 80.5164 10.4474C81.297 11.7558 81.5874 13.3024 81.3355 14.8077L79.493 25.9116C79.3719 26.6631 78.9889 27.3467 78.4124 27.8395C77.8358 28.3323 77.1039 28.6016 76.3479 28.5993H69.5179V60.5986C69.5179 64.1187 66.6587 66.9986 63.164 66.9986H37.7497C36.0646 66.9986 34.4484 66.3242 33.2569 65.1239C32.0653 63.924 31.3959 62.2961 31.3959 60.5986V28.5993H24.5659C23.8099 28.6016 23.0779 28.3323 22.5014 27.8395C21.9248 27.3467 21.5419 26.6631 21.4207 25.9116L19.5783 14.8077C19.3261 13.3024 19.6167 11.7558 20.3973 10.4474C21.178 9.13874 22.3974 8.15453 23.8353 7.672Z" stroke="url(#paint1_radial_86_4748)" stroke-width="5.33322" stroke-linecap="round" stroke-linejoin="round"/>
<defs>
<radialGradient id="paint0_radial_86_4748" cx="0" cy="0" r="1" gradientUnits="userSpaceOnUse" gradientTransform="translate(33.954 34.9993) rotate(90) scale(31.8935 30.954)">
<stop offset="0.533654" stop-color="#7D8FE2"/>
<stop offset="1" stop-color="white"/>
</radialGradient>
<radialGradient id="paint1_radial_86_4748" cx="0" cy="0" r="1" gradientUnits="userSpaceOnUse" gradientTransform="translate(50.4568 34.9993) rotate(90) scale(31.9993 30.9671)">
<stop offset="0.533654" stop-color="#7D8FE2"/>
<stop offset="1" stop-color="white"/>
</radialGradient>
</defs>
</svg>
